<svg width="40" height="40" viewBox="0 0 40 40" fill="none" xmlns="http://www.w3.org/2000/svg">
<rect x="4.1" y="29.1" width="7.8" height="7.8" rx="1.9" stroke="black" stroke-width="2.2"/>
<rect x="16.1" y="20.1" width="7.8" height="16.8" rx="1.9" stroke="black" stroke-width="2.2"/>
<rect x="28.1" y="25.1" width="7.8" height="11.8" rx="1.9" stroke="black" stroke-width="2.2"/>
<path d="M18.8662 2.21631C19.3293 1.27797 20.6678 1.27795 21.1309 2.21631L22.8408 5.68115L26.666 6.23682C27.7012 6.38754 28.1142 7.65983 27.3652 8.39014L24.5977 11.0874L25.251 14.897C25.4278 15.9283 24.3452 16.715 23.4189 16.228L19.998 14.4292L16.5781 16.228C15.652 16.7148 14.5693 15.9282 14.7461 14.897L15.3994 11.0874L12.6328 8.39014C11.8835 7.65975 12.2965 6.38729 13.332 6.23682L17.1562 5.68115L18.8662 2.21631ZM18.5293 6.57178C18.3454 6.94416 17.99 7.20235 17.5791 7.26221L14.292 7.73877L16.6709 10.0571H16.6699C16.9675 10.3471 17.1034 10.7657 17.0332 11.1753L16.4717 14.4468L19.4111 12.9028C19.7789 12.7095 20.2182 12.7095 20.5859 12.9028L23.5254 14.4468L22.9639 11.1753C22.8936 10.7657 23.0297 10.3471 23.3271 10.0571L25.7051 7.73877L22.4189 7.26221C22.0079 7.20247 21.6527 6.9442 21.4688 6.57178L19.998 3.59326L18.5293 6.57178Z" fill="black" stroke="black" stroke-width="0.5"/>
</svg>
