<svg version="1.1" id="Layer_1" xmlns="http://www.w3.org/2000/svg" xmlns:xlink="http://www.w3.org/1999/xlink" x="0px" y="0px"
	 width="100%" viewBox="0 0 1024 1024" enable-background="new 0 0 1024 1024" xml:space="preserve">
<path fill="#000000" opacity="1.000000" stroke="none" 
	d="
M142.729691,575.935303 
	C139.253448,554.267822 137.364700,532.906677 137.808472,511.385864 
	C140.419128,384.785583 192.683945,283.767212 294.857330,209.071899 
	C340.643005,175.599609 392.199402,155.008392 448.189056,145.964676 
	C479.498108,140.907455 511.082825,139.241791 542.735352,141.842377 
	C638.783875,149.733749 721.082397,187.383820 787.673340,257.376221 
	C838.011475,310.285553 868.884399,373.399414 882.468994,445.134155 
	C888.111572,474.930450 889.897705,504.998352 888.089111,535.090454 
	C883.144531,617.362976 855.172180,690.885986 801.735168,754.107239 
	C754.549683,809.932495 696.338501,849.536743 626.444214,871.531799 
	C595.187317,881.368164 563.207092,887.001282 530.402222,888.464661 
	C453.436676,891.897888 382.113983,873.296021 316.615814,833.218750 
	C253.470306,794.581055 205.852158,741.584045 173.899445,674.611450 
	C158.949219,643.275940 149.649750,610.222595 142.729691,575.935303 
M785.419006,732.940308 
	C796.385559,719.686096 806.048584,705.516052 814.844788,690.754333 
	C843.331360,642.948914 858.902588,591.060974 862.457520,535.696960 
	C864.305969,506.909668 863.114136,478.088104 857.444458,449.664154 
	C843.014648,377.323303 809.915161,314.974030 756.440491,263.972168 
	C698.385010,208.601318 629.283630,176.919968 549.292053,169.142487 
	C512.744324,165.589005 476.417175,166.822510 440.503052,174.427200 
	C358.525055,191.785797 290.607910,232.892151 238.854279,298.716461 
	C185.526840,366.542511 160.563019,444.188049 164.061935,530.773743 
	C165.226120,559.582886 170.364136,587.615845 178.905151,614.992188 
	C201.852005,688.543274 243.842972,748.721191 306.176147,794.424255 
	C362.910828,836.022583 426.322937,859.126587 496.617676,862.496155 
	C530.003601,864.096558 563.118652,861.096069 595.665710,853.034241 
	C671.990967,834.128357 734.863159,793.918640 785.419006,732.940308 
z"/>
<path fill="#000000" opacity="1.000000" stroke="none" 
	d="
M332.811340,605.597900 
	C327.785522,604.235413 328.576385,601.335327 330.110016,598.120483 
	C340.222595,576.921997 350.289124,555.701599 360.412201,534.508179 
	C387.479248,477.841339 414.586334,421.193695 441.635040,364.518158 
	C449.454681,348.133484 457.242737,331.731659 464.812683,315.230988 
	C467.521912,309.325531 471.691986,306.754547 478.117615,306.788177 
	C500.615570,306.905975 523.114624,306.849976 545.613098,306.794220 
	C552.208984,306.777863 556.751526,309.103790 559.772827,315.539124 
	C598.134094,397.248657 636.699036,478.862610 675.199280,560.506958 
	C680.597351,571.954285 685.927734,583.433472 691.288147,594.898621 
	C691.640808,595.652954 691.962219,596.422424 692.332031,597.168091 
	C693.567749,599.659729 694.507263,602.325317 692.345337,604.616272 
	C689.936035,607.169250 687.370239,605.395325 685.083130,604.101990 
	C674.493286,598.113586 663.752747,592.419189 652.841980,587.034363 
	C611.653809,566.706421 568.341431,553.041504 523.119690,545.163330 
	C496.043091,540.446350 468.809143,537.524536 441.361206,536.207886 
	C435.157135,535.910278 431.868561,538.315979 429.383118,543.603943 
	C421.093353,561.241150 412.311890,578.650879 404.244019,596.386780 
	C401.111938,603.272156 396.729095,606.149231 389.219635,605.998169 
	C370.563293,605.622864 351.896881,605.750183 332.811340,605.597900 
M545.305908,511.081665 
	C556.643738,513.896912 567.492249,518.547302 578.678284,520.896667 
	C580.047546,518.700623 579.135376,517.560913 578.572144,516.396545 
	C557.759216,473.370026 536.950317,430.341522 516.076355,387.344604 
	C515.120178,385.375000 514.699341,382.424133 511.732208,382.453613 
	C508.833160,382.482422 508.365784,385.387787 507.320160,387.338196 
	C496.776855,407.004089 487.610382,427.385071 476.493774,446.753540 
	C474.740723,449.807892 475.222809,451.892792 478.427399,453.680420 
	C486.281891,458.061890 494.074982,462.561829 501.773346,467.211792 
	C506.688293,470.180511 506.575073,472.625549 501.459076,475.398773 
	C494.724670,479.049286 487.863190,482.464661 481.079376,486.025024 
	C479.359833,486.927490 477.328705,487.564911 476.785980,490.098145 
	C477.135864,490.507721 477.464142,491.284760 477.976105,491.434784 
	C500.153625,497.934113 522.347412,504.377838 545.305908,511.081665 
z"/>
<path fill="#000000" opacity="1.000000" stroke="none" 
	d="
M554.969604,620.968994 
	C539.068481,636.732422 533.000732,656.201050 531.303833,677.535034 
	C530.909790,682.488647 530.366638,687.465332 528.656799,692.210510 
	C525.487122,701.007141 518.066833,706.620117 510.050171,706.252869 
	C501.089539,705.842346 493.979492,699.872437 491.639954,690.612671 
	C489.190369,680.917419 489.158508,670.857727 487.335297,661.063721 
	C483.276215,639.258545 471.362610,622.641174 453.558533,609.913147 
	C451.797852,608.654419 450.114319,607.262573 448.253021,606.175476 
	C444.883423,604.207581 443.449554,601.459106 443.588806,597.518799 
	C443.752930,592.874817 443.141083,588.192688 443.454285,583.567017 
	C443.929688,576.545715 446.193085,574.650635 453.299591,574.642517 
	C480.282227,574.611633 507.264954,574.628052 534.247620,574.625488 
	C545.740173,574.624390 557.233032,574.571411 568.725220,574.635986 
	C575.192322,574.672363 577.532593,576.678711 578.005432,583.115906 
	C578.345825,587.750366 578.125671,592.435608 577.984131,597.093079 
	C577.848511,601.554749 575.869507,604.864868 571.897705,607.259644 
	C565.748352,610.967285 560.262756,615.590637 554.969604,620.968994 
z"/>
<path fill="#000000" opacity="1.000000" stroke="none" 
	d="
M389.016479,731.890503 
	C379.891052,745.663696 370.915100,759.096252 362.110962,772.640503 
	C359.945099,775.972412 358.130737,776.771973 354.619019,774.144104 
	C345.110382,767.028809 345.318756,768.970642 352.133453,759.133972 
	C356.847015,752.330139 361.564697,745.529175 366.814026,737.957458 
	C359.138245,741.063660 352.629974,744.299622 346.206909,747.740295 
	C339.168579,751.510620 332.773132,747.935913 332.775665,739.936890 
	C332.778168,732.132568 333.455444,724.328430 333.894379,715.338379 
	C330.761139,719.609009 328.160156,723.070679 325.650940,726.597656 
	C323.141327,730.125244 320.901154,733.860107 318.204529,737.233765 
	C316.335297,739.572327 315.590240,744.124939 312.018036,743.558044 
	C308.153046,742.944763 305.292847,739.436951 302.426483,736.678833 
	C300.936218,735.244995 302.039856,733.579163 303.014893,732.169678 
	C313.151825,717.516479 323.327484,702.889832 333.400513,688.192749 
	C335.559052,685.043274 337.708496,685.070435 340.402100,687.363159 
	C342.430023,689.089294 344.562958,690.696411 346.696808,692.292664 
	C349.549255,694.426453 350.324829,697.211365 349.821777,700.657043 
	C348.622681,708.869934 347.548584,717.101624 346.493103,725.334534 
	C346.310547,726.758484 346.467224,728.225952 346.467224,730.139160 
	C353.636902,728.302185 359.590576,724.897095 365.958496,722.612427 
	C367.992279,721.882812 369.931244,720.892883 371.932892,720.068909 
	C379.590454,716.916382 385.218323,718.037231 390.840057,723.828003 
	C394.109253,727.195496 390.224762,729.097961 389.016479,731.890503 
z"/>
<path fill="#000000" opacity="1.000000" stroke="none" 
	d="
M569.398438,783.231445 
	C562.769470,761.651367 573.848450,743.360718 595.922974,738.809021 
	C617.253845,734.410645 634.141602,745.693726 637.841553,767.063232 
	C639.150085,774.620972 636.948364,781.594055 632.608215,787.799622 
	C623.047119,801.470337 602.711609,807.510010 587.175293,801.530884 
	C578.543823,798.209045 572.922913,792.037170 569.398438,783.231445 
M614.946594,784.485718 
	C615.830750,783.495300 616.820801,782.579590 617.581726,781.502136 
	C622.151733,775.030579 621.597900,765.411316 616.324890,758.684326 
	C611.705505,752.791199 604.094238,750.983459 596.510132,753.978088 
	C587.875305,757.387634 584.461365,763.319275 585.334534,773.396057 
	C586.071167,781.896790 591.193787,787.824341 599.460754,789.214905 
	C605.005493,790.147705 609.923218,788.167053 614.946594,784.485718 
z"/>
<path fill="#000000" opacity="1.000000" stroke="none" 
	d="
M742.324097,692.729004 
	C731.260498,685.563477 720.464172,678.651489 709.751343,671.612427 
	C704.475342,668.145691 704.464966,667.300049 707.947571,662.180054 
	C713.564575,653.921814 718.836121,645.416809 724.707703,637.346497 
	C731.605652,627.865540 742.101013,625.834900 751.545959,631.548523 
	C757.479553,635.137939 760.391541,640.372070 760.315491,647.294739 
	C760.293823,649.261536 760.312134,651.228821 760.312134,653.482300 
	C768.934631,655.159485 777.842773,652.639221 786.377625,655.033264 
	C784.096558,664.962769 779.136475,669.063782 770.053284,668.951172 
	C767.222656,668.916077 764.390991,668.926880 761.560181,668.954224 
	C752.665588,669.040100 752.665649,669.046997 748.866943,678.004028 
	C752.268555,681.569641 756.799011,683.754150 760.928650,686.424622 
	C763.887756,688.338074 764.666626,690.090942 762.737305,693.294861 
	C756.284302,704.010864 758.204590,702.252380 748.989746,696.885864 
	C746.832275,695.629395 744.745300,694.251953 742.324097,692.729004 
M732.940430,668.519531 
	C734.855469,669.849365 736.657043,670.173035 737.916138,667.722656 
	C740.424744,662.840515 743.333618,658.149963 745.099854,652.907898 
	C746.171265,649.727905 745.833923,646.901367 742.687927,645.102783 
	C739.704041,643.396973 737.019348,644.581970 735.117859,646.893127 
	C732.912048,649.574158 731.132690,652.617737 729.275513,655.571411 
	C724.687866,662.867554 724.712463,662.882996 731.948608,667.833984 
	C732.086060,667.928101 732.222473,668.023804 732.940430,668.519531 
z"/>
<path fill="#000000" opacity="1.000000" stroke="none" 
	d="
M298.939453,670.891968 
	C291.923340,681.448975 285.156342,691.739014 278.280334,701.955688 
	C274.434998,707.669373 273.628113,707.595886 269.676422,701.756592 
	C268.836884,700.516052 268.074005,699.209961 267.122162,698.061462 
	C264.269135,694.618896 263.951691,691.277710 267.150116,687.844055 
	C270.227264,684.540588 270.740814,681.345947 267.760040,677.326965 
	C264.808746,673.347778 262.535065,668.812927 260.354218,664.331909 
	C258.557373,660.639893 256.268585,659.181152 252.140244,660.333496 
	C249.548889,661.056824 246.279449,662.758667 244.192276,660.062378 
	C241.467194,656.541931 238.924622,652.531799 238.401810,648.061279 
	C238.028793,644.871521 241.622894,645.220215 243.678345,644.882996 
	C250.882645,643.700562 258.136017,642.816589 265.371887,641.827271 
	C276.393219,640.320435 287.432770,638.933167 298.426270,637.245544 
	C301.544189,636.766846 303.445343,637.642151 305.108063,640.188538 
	C311.932373,650.639954 311.974701,650.615601 305.095306,661.362183 
	C303.121216,664.446045 301.127625,667.517334 298.939453,670.891968 
M274.498718,655.476074 
	C273.284454,655.918823 272.262817,656.718445 272.962891,658.041809 
	C274.848938,661.607361 276.209198,665.556580 279.842773,668.568115 
	C284.437714,663.830139 287.572144,658.458252 291.437927,652.379333 
	C285.254150,653.503479 280.239746,654.415100 274.498718,655.476074 
z"/>
<path fill="#000000" opacity="1.000000" stroke="none" 
	d="
M658.232788,714.791870 
	C665.152039,723.357544 671.472290,731.990112 678.652222,739.836060 
	C685.442810,747.256592 694.208862,746.328491 700.547058,738.511780 
	C703.562439,734.792908 704.352234,730.923401 702.108032,726.486694 
	C699.758240,721.841248 696.704590,717.692444 693.517456,713.629028 
	C689.404907,708.385925 685.279846,703.149719 681.027649,698.020264 
	C678.924988,695.483887 678.615417,693.557190 681.654480,691.468567 
	C692.394714,684.087769 689.630127,683.631653 697.564209,693.509766 
	C702.361633,699.482666 706.870850,705.686096 711.597412,711.716980 
	C724.071106,727.632874 718.144226,741.326477 706.522400,751.779480 
	C692.340881,764.534729 676.939575,763.083496 664.745483,748.349976 
	C658.372925,740.650391 652.307495,732.695435 645.882385,725.041321 
	C643.169128,721.809082 643.413147,719.604431 646.947205,717.436951 
	C648.785278,716.309570 650.471558,714.919922 652.157715,713.563416 
	C654.503479,711.676331 656.398315,712.110718 658.232788,714.791870 
z"/>
<path fill="#000000" opacity="1.000000" stroke="none" 
	d="
M416.226379,764.241699 
	C421.603943,757.645508 426.860626,751.402771 431.838654,744.945312 
	C434.221680,741.854004 436.702942,741.035339 440.455231,742.267517 
	C455.719574,747.280273 452.325012,744.064819 454.300262,759.778076 
	C456.287781,775.589111 457.640991,791.479004 459.494812,807.308289 
	C460.052673,812.071716 458.241394,812.592407 454.480774,811.037842 
	C453.867493,810.784424 453.232025,810.455017 452.591522,810.416870 
	C445.707733,810.007019 443.739655,805.409546 443.844238,799.600708 
	C443.916534,795.584534 441.971649,794.111816 438.517059,793.102295 
	C432.613831,791.377014 426.771149,789.407471 421.005463,787.264893 
	C418.238770,786.236755 416.240814,786.395630 414.649475,789.041809 
	C414.143585,789.882935 413.332336,790.537354 412.681183,791.294739 
	C406.445221,798.547485 406.514191,798.393494 397.869568,794.620361 
	C393.755157,792.824463 393.970337,790.849182 396.466431,787.893372 
	C403.018341,780.134766 409.488373,772.307068 416.226379,764.241699 
M439.950592,767.455505 
	C439.351959,765.450989 440.312897,763.093445 438.082886,760.747375 
	C433.816132,765.795227 429.640442,770.735229 425.040100,776.177673 
	C430.676971,778.651306 435.766144,780.027344 441.576599,781.239014 
	C441.040741,776.404114 440.590576,772.342407 439.950592,767.455505 
z"/>
<path fill="#000000" opacity="1.000000" stroke="none" 
	d="
M533.124023,267.297516 
	C528.939392,267.668304 527.603394,265.885193 527.713501,262.301453 
	C527.866699,257.313934 527.651794,252.315887 527.759216,247.325882 
	C527.822388,244.394547 526.716797,243.068314 523.684387,243.113647 
	C517.695068,243.203156 511.701416,243.175018 505.712677,243.049057 
	C502.534241,242.982193 501.210327,244.249573 501.305115,247.486038 
	C501.456116,252.640320 501.226013,257.805450 501.361633,262.960632 
	C501.446777,266.196869 500.095093,267.256195 496.923553,267.356781 
	C486.668518,267.682037 486.669556,267.786652 486.667633,257.763031 
	C486.664795,243.118164 486.838409,228.470108 486.568146,213.830215 
	C486.477509,208.920639 488.244629,207.138351 492.930511,207.707520 
	C494.243256,207.866989 495.593506,207.807220 496.920929,207.738617 
	C500.073853,207.575714 501.457672,208.955353 501.363220,212.174561 
	C501.231476,216.663696 501.443146,221.162659 501.321533,225.652374 
	C501.243561,228.530151 502.222198,230.025879 505.288940,229.989700 
	C511.445374,229.917068 517.604126,229.908676 523.760193,229.994354 
	C526.832825,230.037109 527.835571,228.545380 527.763855,225.679459 
	C527.655640,221.355286 527.869751,217.020981 527.694214,212.701233 
	C527.546692,209.070206 528.997009,207.724777 532.651855,207.654678 
	C542.333923,207.468994 542.334656,207.339523 542.338318,216.823700 
	C542.343750,230.802887 542.345520,244.782074 542.346130,258.761261 
	C542.346497,267.278625 542.344238,267.278625 533.124023,267.297516 
z"/>
<path fill="#000000" opacity="1.000000" stroke="none" 
	d="
M624.145874,236.672791 
	C617.420654,234.601929 611.051575,232.679672 604.737549,230.590851 
	C601.769287,229.608902 599.436096,228.971756 598.259521,233.104187 
	C597.199219,236.827881 596.976013,239.447174 601.613708,240.561386 
	C604.993591,241.373383 608.208740,242.852478 611.528320,243.939407 
	C615.467224,245.229126 614.775513,247.708450 613.602966,250.656830 
	C612.500488,253.428909 611.857361,256.150726 607.769714,254.511475 
	C604.382996,253.153336 600.729553,252.458420 597.347656,251.090546 
	C593.900757,249.696381 592.403564,251.042557 591.621948,254.216049 
	C588.924500,265.168091 587.281982,262.791534 597.849609,266.290833 
	C602.584473,267.858704 607.359009,269.336700 612.183655,270.594208 
	C616.242920,271.652252 615.762817,274.324158 614.929749,277.209229 
	C614.075684,280.167206 613.236755,283.303955 608.963135,281.996429 
	C597.354492,278.444702 585.765564,274.828430 574.145813,271.313629 
	C571.406738,270.485107 570.920227,268.789612 571.661743,266.335693 
	C576.567810,250.100082 581.484985,233.867783 586.349854,217.619812 
	C587.084900,215.164963 588.391724,213.845215 591.068115,214.489426 
	C603.385925,217.454453 615.138123,222.195374 627.139709,226.143005 
	C630.531067,227.258499 628.804932,234.037170 624.145874,236.672791 
z"/>
<path fill="#000000" opacity="1.000000" stroke="none" 
	d="
M506.660522,776.096741 
	C506.652832,774.114014 506.574738,772.611633 506.654297,771.117554 
	C506.803528,768.314331 505.478943,767.232605 502.751373,767.309875 
	C499.257568,767.408813 495.751923,767.182007 492.263336,767.347412 
	C488.761597,767.513489 487.680634,765.956116 487.600281,762.594849 
	C487.369232,752.929993 487.254608,752.904663 496.953979,752.879028 
	C510.275299,752.843750 523.596924,752.824341 536.918152,752.863281 
	C542.476440,752.879517 543.059937,753.631165 543.022522,759.912598 
	C542.981140,766.858826 542.652588,767.252197 536.832214,767.325134 
	C524.040100,767.485474 524.043213,767.485535 524.035645,780.268066 
	C524.030029,789.759521 523.937378,799.251892 524.041077,808.742065 
	C524.084839,812.752441 522.531494,814.356506 518.398804,814.281616 
	C504.767212,814.034668 506.810150,815.424744 506.694244,803.057190 
	C506.611542,794.232361 506.667328,785.406311 506.660522,776.096741 
z"/>
<path fill="#000000" opacity="1.000000" stroke="none" 
	d="
M407.099609,237.325928 
	C401.817474,238.664246 397.144073,234.095551 398.140411,229.047424 
	C398.499695,227.226883 400.076508,226.935059 401.480957,226.493866 
	C415.274292,222.161087 429.112946,217.967285 442.850311,213.464355 
	C448.241180,211.697327 447.954529,215.932709 449.178345,218.702637 
	C450.486298,221.662979 450.620178,224.110992 446.668274,225.180740 
	C443.626160,226.004196 440.709778,227.283981 437.681335,228.168518 
	C434.798737,229.010452 434.227875,230.533371 435.056427,233.399765 
	C438.282410,244.559677 441.307068,255.778168 444.350555,266.990082 
	C444.935699,269.145630 446.639404,271.926758 444.177185,273.403168 
	C440.973145,275.324371 437.249420,276.867188 433.355225,276.363434 
	C431.518250,276.125793 431.540863,273.740997 431.068939,272.222443 
	C427.716125,261.433655 424.234467,250.676422 421.265778,239.780563 
	C419.948730,234.946686 417.879791,233.410187 413.225983,235.516388 
	C411.427612,236.330307 409.415894,236.672882 407.099609,237.325928 
z"/>
</svg>