<svg width="48" height="48" viewBox="0 0 48 48" fill="none" xmlns="http://www.w3.org/2000/svg">
<circle cx="24" cy="24" r="22.9" stroke="black" stroke-width="2.2"/>
<path d="M10.2902 31.4398C9.91281 31.3375 9.9722 31.1197 10.0874 30.8783C10.8468 29.2863 11.6028 27.6927 12.363 26.1012C14.3956 21.8456 16.4313 17.5916 18.4626 13.3354C19.0498 12.1049 19.6347 10.8732 20.2032 9.63406C20.4066 9.19057 20.7198 8.9975 21.2023 9.00002C22.8919 9.00887 24.5815 9.00467 26.2711 9.00048C26.7664 8.99925 27.1075 9.17392 27.3344 9.6572C30.2152 15.7934 33.1114 21.9223 36.0026 28.0536C36.408 28.9133 36.8083 29.7753 37.2109 30.6363C37.2373 30.693 37.2615 30.7508 37.2892 30.8068C37.382 30.9939 37.4526 31.1941 37.2902 31.3661C37.1093 31.5578 36.9166 31.4246 36.7449 31.3275C35.9496 30.8778 35.143 30.4501 34.3237 30.0457C31.2305 28.5192 27.9779 27.493 24.5819 26.9013C22.5485 26.5471 20.5033 26.3277 18.442 26.2288C17.9761 26.2065 17.7292 26.3871 17.5425 26.7842C16.92 28.1087 16.2605 29.4162 15.6546 30.7481C15.4194 31.2652 15.0903 31.4812 14.5263 31.4699C13.1253 31.4417 11.7235 31.4512 10.2902 31.4398ZM26.248 24.3419C27.0994 24.5533 27.9141 24.9026 28.7542 25.079C28.857 24.9141 28.7885 24.8285 28.7462 24.741C27.1832 21.5099 25.6205 18.2785 24.0529 15.0496C23.9811 14.9017 23.9495 14.6801 23.7267 14.6823C23.509 14.6845 23.4739 14.9026 23.3954 15.0491C22.6036 16.526 21.9152 18.0565 21.0804 19.511C20.9487 19.7404 20.9849 19.897 21.2256 20.0312C21.8154 20.3603 22.4007 20.6982 22.9788 21.0474C23.3479 21.2703 23.3394 21.454 22.9552 21.6622C22.4495 21.9364 21.9342 22.1928 21.4248 22.4602C21.2956 22.528 21.1431 22.5759 21.1023 22.7661C21.1286 22.7969 21.1533 22.8552 21.1917 22.8665C22.8572 23.3546 24.5239 23.8385 26.248 24.3419Z" fill="black"/>
<path d="M26.9737 32.5941C25.7796 33.7779 25.3239 35.24 25.1965 36.8421C25.1669 37.2141 25.1261 37.5878 24.9977 37.9442C24.7597 38.6048 24.2024 39.0263 23.6004 38.9987C22.9275 38.9679 22.3935 38.5196 22.2178 37.8242C22.0339 37.0961 22.0315 36.3406 21.8946 35.6051C21.5897 33.9676 20.6951 32.7197 19.358 31.7639C19.2258 31.6693 19.0994 31.5648 18.9596 31.4832C18.7065 31.3354 18.5989 31.129 18.6093 30.8331C18.6216 30.4843 18.5757 30.1327 18.5992 29.7853C18.6349 29.2581 18.8049 29.1157 19.3386 29.1151C21.3649 29.1128 23.3912 29.1141 25.4175 29.1139C26.2806 29.1138 27.1437 29.1098 28.0067 29.1146C28.4924 29.1174 28.6681 29.268 28.7036 29.7515C28.7292 30.0995 28.7127 30.4513 28.702 30.8011C28.6919 31.1362 28.5432 31.3848 28.245 31.5646C27.7832 31.843 27.3712 32.1902 26.9737 32.5941Z" fill="black"/>
</svg>
