<svg width="30" height="30" viewBox="0 0 30 30" fill="none" xmlns="http://www.w3.org/2000/svg">
<path d="M15 23.3333C16.841 23.3333 18.3333 24.8257 18.3333 26.6667C18.3333 28.5077 16.841 30 15 30C13.159 30 11.6667 28.5077 11.6667 26.6667C11.6667 24.8257 13.159 23.3333 15 23.3333ZM26.6667 23.3333C28.5077 23.3333 30 24.8257 30 26.6667C30 28.5077 28.5077 30 26.6667 30C24.8257 30 23.3333 28.5077 23.3333 26.6667C23.3333 24.8257 24.8257 23.3333 26.6667 23.3333ZM3.33333 23.3333C5.17428 23.3333 6.66667 24.8257 6.66667 26.6667C6.66667 28.5077 5.17428 30 3.33333 30C1.49238 30 0 28.5077 0 26.6667C0 24.8257 1.49238 23.3333 3.33333 23.3333ZM15 11.6667C16.841 11.6667 18.3333 13.159 18.3333 15C18.3333 16.841 16.841 18.3333 15 18.3333C13.159 18.3333 11.6667 16.841 11.6667 15C11.6667 13.159 13.159 11.6667 15 11.6667ZM26.6667 11.6667C28.5077 11.6667 30 13.159 30 15C30 16.841 28.5077 18.3333 26.6667 18.3333C24.8257 18.3333 23.3333 16.841 23.3333 15C23.3333 13.159 24.8257 11.6667 26.6667 11.6667ZM3.33333 11.6667C5.17428 11.6667 6.66667 13.159 6.66667 15C6.66667 16.841 5.17428 18.3333 3.33333 18.3333C1.49238 18.3333 0 16.841 0 15C0 13.159 1.49238 11.6667 3.33333 11.6667ZM15 0C16.841 0 18.3333 1.49238 18.3333 3.33333C18.3333 5.17428 16.841 6.66667 15 6.66667C13.159 6.66667 11.6667 5.17428 11.6667 3.33333C11.6667 1.49238 13.159 0 15 0ZM26.6667 0C28.5077 0 30 1.49238 30 3.33333C30 5.17428 28.5077 6.66667 26.6667 6.66667C24.8257 6.66667 23.3333 5.17428 23.3333 3.33333C23.3333 1.49238 24.8257 0 26.6667 0ZM3.33333 0C5.17428 0 6.66667 1.49238 6.66667 3.33333C6.66667 5.17428 5.17428 6.66667 3.33333 6.66667C1.49238 6.66667 0 5.17428 0 3.33333C0 1.49238 1.49238 0 3.33333 0Z" fill="#212121"/>
</svg>
